<svg id="Meldingen" xmlns="http://www.w3.org/2000/svg" viewBox="0 0 198.49 252"><defs><style>.cls-1{fill:#fff;}</style></defs><path class="cls-1" d="M861.83,476c-14.39-38.82-26.72-83.61-35.77-132.19a25.53,25.53,0,0,0-2.85-8c-8.44-14.92-20.5-21.3-34.65-24.83-4.75-10.15-13.75-17-24.08-17s-19.26,6.79-24,16.88c-14.37,3.5-26.62,9.85-35.16,24.95a25.53,25.53,0,0,0-2.85,8c-9.05,48.58-21.38,93.37-35.77,132.19a26.24,26.24,0,0,0,24.59,35.38h146A26.24,26.24,0,0,0,861.83,476Z" transform="translate(-665 -294)"/><path class="cls-1" d="M764.25,546c19.39,0,35.34-13.14,37.3-30H727C728.91,532.86,744.86,546,764.25,546Z" transform="translate(-665 -294)"/></svg>