<svg id="RÆNT_logo_Polished" data-name="RÆNT logo Polished" xmlns="http://www.w3.org/2000/svg" viewBox="0 0 498 457.36"><defs><style>.cls-1{fill:#d11818;}</style></defs><path class="cls-1" d="M881.19,470.59,860.87,518a1.32,1.32,0,0,0,1.21,1.83H882.4a1.32,1.32,0,0,0,1.32-1.31V471.11A1.32,1.32,0,0,0,881.19,470.59Z" transform="translate(-669.99 -366.28)"/><path class="cls-1" d="M785.64,467H772.55a1.31,1.31,0,0,0-1.31,1.32v34a1.31,1.31,0,0,0,1.31,1.31h12.93q9.56,0,14-5.27T804,484.63Q804,467,785.64,467Z" transform="translate(-669.99 -366.28)"/><path class="cls-1" d="M1152.65,370.74a4.88,4.88,0,0,0-1.59-2.48l-.9-.75L1120,366.28c-27.37,19.54-75.41,38.47-135.93,52.94-.57.13-1.14.24-1.72.33-4.78.72-28.63,4.26-60.92,8.22a4.89,4.89,0,0,1-5.47-4.84V414a4.87,4.87,0,0,0-4.87-4.87H751.86A4.87,4.87,0,0,0,747,414a4.86,4.86,0,0,1-3.41,4.65C700.81,431.8,670,468.8,670,512.41s30.82,80.62,73.59,93.78a4.84,4.84,0,0,1,3.41,4.64,4.87,4.87,0,0,0,4.87,4.87h21.26a4.88,4.88,0,0,1,4.87,4.88V818.76a4.87,4.87,0,0,0,4.87,4.88h71.26a4.87,4.87,0,0,0,4.87-4.88V620.58a4.88,4.88,0,0,1,4.87-4.88h47.26a4.87,4.87,0,0,0,4.87-4.87V595.72a4.87,4.87,0,0,1,5.89-4.76c35.94,7.69,61.37,14.44,61.37,14.44,61.67,14.67,110.46,34,137.77,53.86a5,5,0,0,0,3,1l10.5-.22a4.87,4.87,0,0,0,4.42-3c18.18-44.89,29-101.82,29-163.77C1168,449,1162.44,407.3,1152.65,370.74ZM947,563.68a1.32,1.32,0,0,1-1.32,1.32H884.78a1.32,1.32,0,0,1-1.31-1.32V535.52a1.32,1.32,0,0,0-1.32-1.32H855.09a1.33,1.33,0,0,0-1.21.8l-12.51,29.2a1.32,1.32,0,0,1-1.21.8h-14.1a1.36,1.36,0,0,1-.82-.29,1.33,1.33,0,0,1-.81.29H807.14a1.33,1.33,0,0,1-1.24-.86l-16.83-45.22a1.32,1.32,0,0,0-1.23-.86H772.55a1.31,1.31,0,0,0-1.31,1.32v44.3a1.32,1.32,0,0,1-1.32,1.32h-16a1.31,1.31,0,0,1-1.31-1.32V453.92a1.31,1.31,0,0,1,1.31-1.32h32.53q18.36,0,27.09,8.32t8.73,23.88q0,20.08-16.14,28.84a1.31,1.31,0,0,0-.61,1.66l19.72,47,49.47-108.9a1.33,1.33,0,0,1,1.2-.77h69.55a1.32,1.32,0,0,1,1.31,1.32v12.27a1.32,1.32,0,0,1-1.31,1.32H903a1.31,1.31,0,0,0-1.31,1.31V498.3a1.32,1.32,0,0,0,1.31,1.32h32.86a1.32,1.32,0,0,1,1.32,1.31v12.36a1.32,1.32,0,0,1-1.32,1.32H903a1.31,1.31,0,0,0-1.31,1.31v32.53a1.32,1.32,0,0,0,1.31,1.32h42.74a1.31,1.31,0,0,1,1.32,1.31Zm86.21,0a1.32,1.32,0,0,1-1.31,1.32h-15.22a1.31,1.31,0,0,1-1.19-.76l-38.65-83.8a1.31,1.31,0,0,0-2.5.55v82.69a1.32,1.32,0,0,1-1.32,1.32H960.13a1.32,1.32,0,0,1-1.32-1.32V453.92a1.32,1.32,0,0,1,1.32-1.32h19.76a1.31,1.31,0,0,1,1.19.77l34.1,74.75a1.31,1.31,0,0,0,2.51-.55V453.92a1.32,1.32,0,0,1,1.31-1.32h12.94a1.32,1.32,0,0,1,1.31,1.32Zm76.09-96.58a1.32,1.32,0,0,1-1.32,1.31h-22.48a1.32,1.32,0,0,0-1.32,1.32v93.95a1.32,1.32,0,0,1-1.31,1.32h-16a1.32,1.32,0,0,1-1.32-1.32V469.73a1.32,1.32,0,0,0-1.31-1.32H1042a1.32,1.32,0,0,1-1.32-1.31V453.92a1.32,1.32,0,0,1,1.32-1.32h66a1.32,1.32,0,0,1,1.32,1.32Z" transform="translate(-669.99 -366.28)"/></svg>