<svg id="RÆNT_logo_Polished" data-name="RÆNT logo Polished" xmlns="http://www.w3.org/2000/svg" viewBox="0 0 455.75 483.94"><defs><style>.cls-1{fill:#d11818;}</style></defs><g id="RÆNT_logo_svg" data-name="RÆNT logo svg"><path id="Path_217" data-name="Path 217" class="cls-1" d="M539.62,421.75l-8.39,46.57a1.2,1.2,0,0,0,.95,1.41,1.25,1.25,0,0,0,.51,0l18.17-4.19a1.2,1.2,0,0,0,.9-1.44L542,421.71a1.2,1.2,0,0,0-2.36,0Z" transform="translate(-356.8 -274.08)"/><path id="Path_218" data-name="Path 218" class="cls-1" d="M453.48,438.27,441.76,441a1.26,1.26,0,0,0-.74.54,1.31,1.31,0,0,0-.16.91l7,30.49a1.21,1.21,0,0,0,1.45.9l11.55-2.67a15.87,15.87,0,0,0,11.58-7.64,19.17,19.17,0,0,0,1.22-13.22Q469.89,434.49,453.48,438.27Z" transform="translate(-356.8 -274.08)"/><path id="Path_219" data-name="Path 219" class="cls-1" d="M761.71,276.45a4.54,4.54,0,0,0-1.94-1.89l-.94-.48-27.24,5.12A382.5,382.5,0,0,1,621,354.6l-1.48.65c-4.13,1.62-24.71,9.7-52.77,19.92a4.49,4.49,0,0,1-5.73-2.72,4.13,4.13,0,0,1-.15-.5L559,364a4.48,4.48,0,0,0-5.37-3.32l-142.5,32.89a4.46,4.46,0,0,0-3.34,5.34h0a4.46,4.46,0,0,1-2.21,4.88A88.57,88.57,0,0,0,444.3,571.44a4.45,4.45,0,0,1,4.13,3.42,4.44,4.44,0,0,0,5.31,3.37h0l19-4.38a4.48,4.48,0,0,1,5.35,3.37l40.94,177.33a4.45,4.45,0,0,0,5.32,3.37h.06l64-14.77a4.44,4.44,0,0,0,3.33-5.34v0L550.8,560.43a4.48,4.48,0,0,1,3.36-5.38h0l42.24-9.75a4.46,4.46,0,0,0,3.34-5.34v0l-3.12-13.52a4.45,4.45,0,0,1,3.33-5.34,4.33,4.33,0,0,1,.95-.11c33.72-.55,57.86.25,57.86.25a380,380,0,0,1,134.3,19.72,4.59,4.59,0,0,0,2.9.27l9.45-2.39a4.48,4.48,0,0,0,3.34-3.6,407.47,407.47,0,0,0-7.87-152.42A436.54,436.54,0,0,0,761.71,276.45Zm-144,214.94a1.2,1.2,0,0,1-.9,1.44L562.34,505.4a1.21,1.21,0,0,1-1.44-.91l-5.85-25.33a1.2,1.2,0,0,0-1.44-.9l-24.2,5.59a1.23,1.23,0,0,0-.9,1l-5.16,28.68a1.2,1.2,0,0,1-.91,1l-12.67,2.93a1.18,1.18,0,0,0-1.45.34l-15.46,3.56a1.2,1.2,0,0,1-1.28-.5l-24.37-37a1.22,1.22,0,0,0-1.29-.5l-13.49,3.11a1.21,1.21,0,0,0-.9,1.45l9.15,39.61a1.2,1.2,0,0,1-.9,1.44l-14.32,3.31a1.2,1.2,0,0,1-1.44-.9l-22.66-98.17a1.18,1.18,0,0,1,.15-.9,1.21,1.21,0,0,1,.75-.54L451.33,425a35,35,0,0,1,25.94,1.84A28.88,28.88,0,0,1,490,446.42a27.79,27.79,0,0,1-8.49,29.11,1.2,1.2,0,0,0-.2,1.61l27.34,38L530.5,407.51a1.24,1.24,0,0,1,.92-.94l62.19-14.36a1.2,1.2,0,0,1,1.44.9l2.53,11a1.2,1.2,0,0,1-.9,1.44l-38,8.77a1.2,1.2,0,0,0-.9,1.44L563.86,442a1.2,1.2,0,0,0,1.44.9l29.38-6.78a1.21,1.21,0,0,1,1.45.9l2.55,11.05a1.21,1.21,0,0,1-.9,1.44l-29.39,6.78a1.21,1.21,0,0,0-.9,1.45l6.71,29.07a1.21,1.21,0,0,0,1.44.9l38.22-8.83a1.2,1.2,0,0,1,1.44.9Zm77.08-17.8a1.2,1.2,0,0,1-.9,1.44l-13.62,3.15a1.21,1.21,0,0,1-1.23-.42l-51.84-66.95a1.21,1.21,0,0,0-1.68-.26,1.18,1.18,0,0,0-.45,1.29l17.07,73.94a1.2,1.2,0,0,1-.9,1.44l-11.53,2.66a1.2,1.2,0,0,1-1.44-.9l-22.67-98.16a1.21,1.21,0,0,1,.9-1.45l17.67-4.08a1.23,1.23,0,0,1,1.24.45l45.92,59.78a1.2,1.2,0,0,0,2.13-1l-15.2-65.83a1.2,1.2,0,0,1,.9-1.44l11.56-2.67a1.19,1.19,0,0,1,1.44.9Zm48.08-102.06a1.21,1.21,0,0,1-.9,1.45l-20.11,4.64a1.2,1.2,0,0,0-.9,1.44l19.39,84a1.2,1.2,0,0,1-.9,1.44L725,467.81a1.2,1.2,0,0,1-1.44-.9l-19.39-84a1.2,1.2,0,0,0-1.44-.91l-19.82,4.58a1.21,1.21,0,0,1-1.45-.9l-2.72-11.78a1.2,1.2,0,0,1,.9-1.44l59-13.62a1.2,1.2,0,0,1,1.44.9Z" transform="translate(-356.8 -274.08)"/></g></svg>