<svg id="Tandwiel" xmlns="http://www.w3.org/2000/svg" viewBox="0 0 554 554"><defs><style>.cls-1{fill:#fff;}</style></defs><path class="cls-1" d="M638.56,320.78l-62.49-7.62a13,13,0,0,1-10.86-9.1,199.82,199.82,0,0,0-14.62-35.27,13,13,0,0,1,1.24-14.12l38.8-49.59a13,13,0,0,0-1-17.23l-41.43-41.43a13,13,0,0,0-17.23-1l-49.59,38.8a13,13,0,0,1-14.12,1.24,199.82,199.82,0,0,0-35.27-14.62,13,13,0,0,1-9.1-10.86l-7.62-62.49A13,13,0,0,0,402.29,86H343.71a13,13,0,0,0-12.93,11.44l-7.62,62.49a13,13,0,0,1-9.1,10.86,199.82,199.82,0,0,0-35.27,14.62,13,13,0,0,1-14.12-1.24l-49.59-38.8a13,13,0,0,0-17.23,1l-41.43,41.43a13,13,0,0,0-1,17.23l38.8,49.59a13,13,0,0,1,1.24,14.12,199.82,199.82,0,0,0-14.62,35.27,13,13,0,0,1-10.86,9.1l-62.49,7.62A13,13,0,0,0,96,333.71v58.58a13,13,0,0,0,11.44,12.93l62.49,7.62a13,13,0,0,1,10.86,9.1,199.82,199.82,0,0,0,14.62,35.27,13,13,0,0,1-1.24,14.12l-38.8,49.59a13,13,0,0,0,1,17.23l41.43,41.43a13,13,0,0,0,17.23,1l49.59-38.8a13,13,0,0,1,14.12-1.24,199.82,199.82,0,0,0,35.27,14.62,13,13,0,0,1,9.1,10.86l7.62,62.49A13,13,0,0,0,343.71,640h58.58a13,13,0,0,0,12.93-11.44l7.62-62.49a13,13,0,0,1,9.1-10.86,199.82,199.82,0,0,0,35.27-14.62,13,13,0,0,1,14.12,1.24l49.59,38.8a13,13,0,0,0,17.23-1l41.43-41.43a13,13,0,0,0,1-17.23l-38.8-49.59a13,13,0,0,1-1.24-14.12,199.82,199.82,0,0,0,14.62-35.27,13,13,0,0,1,10.86-9.1l62.49-7.62A13,13,0,0,0,650,392.29V333.71A13,13,0,0,0,638.56,320.78ZM373,500A137,137,0,1,1,510,363,137,137,0,0,1,373,500Z" transform="translate(-96 -86)"/></svg>